<svg width="578" height="578" viewBox="0 0 578 578" fill="none" xmlns="http://www.w3.org/2000/svg">
<circle cx="289" cy="289" r="289" fill="#1C64F2"/>
<g clip-path="url(#clip0_1_34)">
<path d="M288.74 301.856C318.18 312.78 348.296 321.786 378.899 328.816C364.838 342.402 347.243 351.761 328.121 355.827C308.999 359.893 289.119 358.501 270.749 351.812C252.38 345.123 236.259 333.404 224.226 317.993C212.192 302.582 204.731 284.098 202.692 264.65C230.554 278.872 259.295 291.299 288.74 301.856ZM293.39 289.184C262.045 277.971 231.572 264.453 202.221 248.743C203.071 227.304 210.585 206.664 223.716 189.699C225.827 187.003 228.073 184.374 230.454 181.813C231.532 180.667 232.678 179.521 233.823 178.443C253.168 159.438 279.212 148.809 306.327 148.854C332.099 148.875 356.953 158.427 376.109 175.672C395.265 192.917 407.37 216.638 410.097 242.272C410.504 245.92 410.707 249.588 410.704 253.259V257.775C409.886 279.261 402.37 299.953 389.208 316.954C356.641 310.02 324.618 300.739 293.39 289.184ZM251.006 199.203C259.735 190.403 270.419 183.789 282.186 179.901C293.954 176.012 306.474 174.958 318.726 176.825C319.607 176.979 320.51 176.956 321.383 176.757C322.255 176.559 323.079 176.188 323.806 175.667C324.534 175.146 325.151 174.486 325.62 173.724C326.09 172.963 326.403 172.115 326.542 171.231C326.737 169.503 326.256 167.768 325.202 166.386C324.147 165.004 322.599 164.084 320.882 163.817C316.077 162.942 311.21 162.446 306.327 162.334C294.197 162.377 282.197 164.83 271.023 169.551C259.849 174.272 249.724 181.166 241.235 189.834C239.98 191.097 239.276 192.805 239.276 194.586C239.276 196.366 239.98 198.075 241.235 199.337C242.498 200.593 244.206 201.297 245.986 201.297C247.766 201.297 249.474 200.593 250.736 199.337L251.006 199.203ZM202.288 259.864V248.676C197.706 246.249 193.393 243.823 189.283 241.329C150.807 218.817 131.132 199.203 134.366 190.777C136.792 184.037 158.893 178.443 209.094 187.07C212.004 182.774 215.224 178.696 218.729 174.871C181.467 168.13 130.256 162.873 121.9 185.925C115.162 205.336 144.137 231.623 188.879 256.696C192.989 258.988 197.167 261.28 201.547 263.437L202.894 264.111C202.894 262.763 202.76 261.415 202.49 260.066L202.288 259.864ZM424.248 249.889V253.259C424.264 257.152 424.084 261.044 423.708 264.919C467.305 290.33 481.051 309.068 478.558 315.875C476.874 320.459 463.195 327.064 422.563 322.278C416.566 321.537 410.299 320.661 403.831 319.515L393.925 317.897H393.117L389.613 317.156C388.804 318.234 387.996 319.245 387.12 320.256C384.835 323.012 382.406 325.644 379.842 328.142L379.303 328.682C384.626 329.827 389.68 330.906 394.734 331.849C394.321 332.397 393.871 332.915 393.386 333.4L394.801 331.849C404.1 333.602 412.927 335.017 421.283 335.961C430.224 337.097 439.224 337.705 448.236 337.781C472.898 337.781 487.385 332.052 491.496 320.796C499.582 297.744 457.737 268.829 424.248 249.889ZM440.217 153.706C447.819 153.72 455.255 151.476 461.581 147.26C467.908 143.043 472.841 137.044 475.756 130.021C478.672 122.998 479.438 115.268 477.958 107.809C476.478 100.35 472.819 93.4982 467.443 88.1211C462.068 82.7441 455.218 79.0836 447.761 77.6034C440.304 76.1231 432.576 76.8896 425.555 79.8058C418.534 82.722 412.537 87.6567 408.321 93.985C404.106 100.313 401.863 107.751 401.876 115.355C401.894 125.521 405.939 135.265 413.126 142.454C420.312 149.642 430.054 153.689 440.217 153.706ZM319.804 105.986C321.03 105.986 322.229 105.622 323.248 104.941C324.267 104.26 325.062 103.291 325.531 102.158C326 101.025 326.123 99.7781 325.884 98.5753C325.645 97.3724 325.054 96.2675 324.187 95.4003C323.32 94.533 322.216 93.9425 321.013 93.7032C319.811 93.4639 318.564 93.5867 317.432 94.0561C316.299 94.5254 315.331 95.3202 314.649 96.3399C313.968 97.3597 313.605 98.5586 313.605 99.785C313.605 101.43 314.258 103.007 315.42 104.17C316.583 105.333 318.16 105.986 319.804 105.986ZM232.206 85.7654C233.432 85.7654 234.631 85.4018 235.65 84.7204C236.67 84.039 237.464 83.0706 237.933 81.9375C238.403 80.8044 238.525 79.5576 238.286 78.3547C238.047 77.1519 237.457 76.0469 236.59 75.1797C235.723 74.3125 234.618 73.7219 233.415 73.4827C232.213 73.2434 230.966 73.3662 229.834 73.8355C228.701 74.3049 227.733 75.0997 227.052 76.1194C226.37 77.1391 226.007 78.338 226.007 79.5645C226.007 80.3788 226.167 81.1851 226.479 81.9375C226.79 82.6898 227.247 83.3734 227.823 83.9492C228.398 84.525 229.082 84.9818 229.834 85.2934C230.586 85.605 231.392 85.7654 232.206 85.7654ZM434.894 200.888C434.894 202.114 435.258 203.313 435.939 204.333C436.62 205.353 437.588 206.147 438.721 206.617C439.854 207.086 441.1 207.209 442.303 206.97C443.505 206.73 444.61 206.14 445.477 205.272C446.344 204.405 446.934 203.3 447.173 202.097C447.413 200.895 447.29 199.648 446.821 198.515C446.351 197.382 445.557 196.413 444.537 195.732C443.518 195.05 442.319 194.687 441.093 194.687C439.449 194.687 437.872 195.34 436.71 196.503C435.547 197.666 434.894 199.243 434.894 200.888ZM495 180.128C496.226 180.128 497.424 179.764 498.444 179.083C499.463 178.402 500.258 177.433 500.727 176.3C501.196 175.167 501.319 173.92 501.08 172.717C500.841 171.514 500.25 170.409 499.383 169.542C498.516 168.675 497.412 168.084 496.209 167.845C495.007 167.606 493.76 167.729 492.627 168.198C491.495 168.667 490.526 169.462 489.845 170.482C489.164 171.502 488.8 172.701 488.8 173.927C488.8 174.741 488.961 175.548 489.272 176.3C489.584 177.052 490.04 177.736 490.616 178.312C491.192 178.888 491.875 179.344 492.627 179.656C493.379 179.968 494.186 180.128 495 180.128ZM495 241.868C493.774 241.868 492.575 242.232 491.556 242.913C490.536 243.594 489.742 244.563 489.272 245.696C488.803 246.829 488.68 248.076 488.92 249.279C489.159 250.482 489.749 251.587 490.616 252.454C491.483 253.321 492.588 253.912 493.79 254.151C494.993 254.39 496.239 254.267 497.372 253.798C498.505 253.329 499.473 252.534 500.154 251.514C500.835 250.494 501.199 249.295 501.199 248.069C501.199 246.424 500.546 244.847 499.383 243.684C498.221 242.521 496.644 241.868 495 241.868ZM117.655 241.868C116.429 241.868 115.23 242.232 114.211 242.913C113.191 243.594 112.397 244.563 111.928 245.696C111.458 246.829 111.336 248.076 111.575 249.279C111.814 250.482 112.405 251.587 113.272 252.454C114.138 253.321 115.243 253.912 116.446 254.151C117.648 254.39 118.895 254.267 120.027 253.798C121.16 253.329 122.128 252.534 122.81 251.514C123.491 250.494 123.854 249.295 123.854 248.069C123.854 246.424 123.201 244.847 122.039 243.684C120.876 242.521 119.299 241.868 117.655 241.868ZM151.347 309.27C150.12 309.27 148.922 309.633 147.902 310.315C146.883 310.996 146.088 311.965 145.619 313.098C145.15 314.231 145.027 315.478 145.266 316.681C145.506 317.883 146.096 318.988 146.963 319.856C147.83 320.723 148.935 321.313 150.137 321.553C151.34 321.792 152.586 321.669 153.719 321.2C154.852 320.73 155.82 319.936 156.501 318.916C157.182 317.896 157.546 316.697 157.546 315.471C157.546 313.826 156.893 312.249 155.73 311.086C154.567 309.923 152.991 309.27 151.347 309.27ZM131.132 363.191C129.906 363.191 128.707 363.555 127.688 364.236C126.668 364.918 125.873 365.886 125.404 367.019C124.935 368.152 124.812 369.399 125.052 370.602C125.291 371.805 125.881 372.91 126.748 373.777C127.615 374.644 128.72 375.235 129.922 375.474C131.125 375.713 132.371 375.59 133.504 375.121C134.637 374.652 135.605 373.857 136.286 372.837C136.967 371.818 137.331 370.619 137.331 369.392C137.331 368.578 137.171 367.772 136.859 367.019C136.547 366.267 136.091 365.583 135.515 365.007C134.939 364.432 134.256 363.975 133.504 363.663C132.752 363.352 131.946 363.191 131.132 363.191ZM407.402 363.191C406.176 363.191 404.977 363.555 403.958 364.236C402.938 364.918 402.144 365.886 401.674 367.019C401.205 368.152 401.083 369.399 401.322 370.602C401.561 371.805 402.151 372.91 403.018 373.777C403.885 374.644 404.99 375.235 406.192 375.474C407.395 375.713 408.641 375.59 409.774 375.121C410.907 374.652 411.875 373.857 412.556 372.837C413.237 371.818 413.601 370.619 413.601 369.392C413.601 368.578 413.441 367.772 413.129 367.019C412.818 366.267 412.361 365.583 411.785 365.007C411.21 364.432 410.526 363.975 409.774 363.663C409.022 363.352 408.216 363.191 407.402 363.191ZM447.832 396.892C446.606 396.892 445.407 397.256 444.387 397.937C443.368 398.619 442.573 399.587 442.104 400.72C441.635 401.853 441.512 403.1 441.751 404.303C441.991 405.506 442.581 406.611 443.448 407.478C444.315 408.345 445.42 408.936 446.622 409.175C447.825 409.414 449.071 409.291 450.204 408.822C451.337 408.353 452.305 407.558 452.986 406.538C453.667 405.518 454.031 404.32 454.031 403.093C454.031 401.449 453.378 399.871 452.215 398.708C451.053 397.545 449.476 396.892 447.832 396.892ZM171.561 132.947C172.787 132.947 173.986 132.583 175.006 131.902C176.025 131.22 176.82 130.252 177.289 129.119C177.758 127.986 177.881 126.739 177.642 125.536C177.402 124.333 176.812 123.228 175.945 122.361C175.078 121.494 173.973 120.903 172.771 120.664C171.568 120.425 170.322 120.547 169.189 121.017C168.056 121.486 167.088 122.281 166.407 123.301C165.726 124.32 165.362 125.519 165.362 126.746C165.362 128.39 166.015 129.968 167.178 131.13C168.34 132.293 169.917 132.947 171.561 132.947ZM231.465 120.006C231.465 121.485 231.904 122.932 232.725 124.162C233.547 125.392 234.715 126.351 236.082 126.918C237.449 127.484 238.953 127.632 240.404 127.343C241.854 127.055 243.187 126.342 244.233 125.296C245.279 124.25 245.992 122.916 246.28 121.465C246.569 120.014 246.421 118.51 245.855 117.142C245.288 115.775 244.33 114.607 243.1 113.785C241.87 112.963 240.424 112.524 238.944 112.524C236.961 112.524 235.058 113.312 233.656 114.715C232.253 116.118 231.465 118.021 231.465 120.006ZM178.3 355.17C176.82 355.17 175.374 355.609 174.144 356.431C172.914 357.253 171.956 358.422 171.39 359.789C170.823 361.156 170.675 362.66 170.964 364.112C171.253 365.563 171.965 366.896 173.011 367.942C174.057 368.989 175.39 369.701 176.841 369.99C178.291 370.279 179.795 370.13 181.162 369.564C182.529 368.998 183.697 368.039 184.519 366.809C185.341 365.578 185.779 364.132 185.779 362.652C185.779 360.668 184.991 358.765 183.589 357.362C182.186 355.959 180.283 355.17 178.3 355.17ZM319.804 402.352C318.325 402.352 316.879 402.79 315.649 403.613C314.419 404.435 313.46 405.603 312.894 406.97C312.328 408.337 312.18 409.842 312.468 411.293C312.757 412.744 313.469 414.077 314.515 415.124C315.561 416.17 316.894 416.882 318.345 417.171C319.796 417.46 321.3 417.312 322.666 416.745C324.033 416.179 325.201 415.22 326.023 413.99C326.845 412.76 327.283 411.313 327.283 409.833C327.283 407.849 326.495 405.946 325.093 404.543C323.69 403.14 321.788 402.352 319.804 402.352ZM353.495 87.0461C354.975 87.0461 356.421 86.6073 357.651 85.7852C358.881 84.9631 359.839 83.7946 360.406 82.4276C360.972 81.0605 361.12 79.5562 360.831 78.1049C360.543 76.6536 359.83 75.3205 358.784 74.2742C357.738 73.2279 356.405 72.5153 354.955 72.2266C353.504 71.938 352 72.0861 350.633 72.6524C349.266 73.2186 348.098 74.1776 347.276 75.4079C346.455 76.6383 346.016 78.0848 346.016 79.5645C346.016 81.5487 346.804 83.4517 348.207 84.8548C349.609 86.2578 351.512 87.0461 353.495 87.0461Z" fill="white"/>
</g>
<path d="M110.77 436.42H128.709C130.9 436.42 132.805 436.656 134.424 437.129C136.057 437.587 137.41 438.225 138.484 439.041C139.559 439.857 140.354 440.831 140.869 441.963C141.399 443.08 141.664 444.29 141.664 445.594C141.664 447.728 140.991 449.597 139.645 451.201C141.191 452.118 142.344 453.307 143.104 454.768C143.863 456.229 144.242 457.89 144.242 459.752C144.242 461.313 143.977 462.724 143.447 463.984C142.932 465.245 142.137 466.326 141.062 467.229C140.003 468.117 138.656 468.804 137.023 469.291C135.405 469.764 133.493 470 131.287 470H110.77V436.42ZM131.33 449.311C131.917 449.311 132.49 449.332 133.049 449.375C134.008 448.458 134.488 447.413 134.488 446.238C134.488 445.021 134.008 444.083 133.049 443.424C132.104 442.751 130.714 442.414 128.881 442.414H117.58V449.311H131.33ZM131.459 464.07C133.292 464.07 134.682 463.676 135.627 462.889C136.587 462.101 137.066 460.991 137.066 459.559C137.066 458.126 136.587 457.009 135.627 456.207C134.682 455.405 133.292 455.004 131.459 455.004H117.58V464.07H131.459ZM150.301 436.42H157.154V470H150.301V436.42ZM165.855 436.42H172.666V464.027H192.195V470H165.855V436.42ZM197.953 436.42H204.807V470H197.953V436.42ZM213.529 436.42H220.34L232.543 448.666L244.746 436.42H251.557V470H244.746V445.852L232.543 457.604L220.34 445.852V470H213.529V436.42ZM277.295 460.01C278.512 460.697 279.744 461.32 280.99 461.879C282.251 462.423 283.554 462.889 284.9 463.275C286.247 463.648 287.658 463.934 289.133 464.135C290.622 464.335 292.205 464.436 293.881 464.436C295.9 464.436 297.619 464.307 299.037 464.049C300.455 463.777 301.608 463.411 302.496 462.953C303.398 462.48 304.05 461.922 304.451 461.277C304.867 460.633 305.074 459.931 305.074 459.172C305.074 457.954 304.566 456.995 303.549 456.293C302.532 455.577 300.964 455.219 298.844 455.219C297.913 455.219 296.932 455.283 295.9 455.412C294.869 455.527 293.824 455.656 292.764 455.799C291.718 455.942 290.68 456.078 289.648 456.207C288.632 456.322 287.672 456.379 286.77 456.379C285.266 456.379 283.819 456.186 282.43 455.799C281.055 455.412 279.83 454.832 278.756 454.059C277.696 453.285 276.851 452.318 276.221 451.158C275.59 449.998 275.275 448.645 275.275 447.098C275.275 446.181 275.397 445.271 275.641 444.369C275.898 443.467 276.299 442.607 276.844 441.791C277.402 440.96 278.118 440.194 278.992 439.492C279.866 438.776 280.919 438.16 282.15 437.645C283.396 437.129 284.829 436.728 286.447 436.441C288.08 436.141 289.935 435.99 292.012 435.99C293.516 435.99 295.027 436.076 296.545 436.248C298.063 436.406 299.538 436.635 300.971 436.936C302.417 437.236 303.807 437.602 305.139 438.031C306.471 438.447 307.71 438.912 308.855 439.428L305.869 444.928C304.924 444.512 303.907 444.133 302.818 443.789C301.73 443.431 300.591 443.123 299.402 442.865C298.214 442.607 296.982 442.407 295.707 442.264C294.447 442.106 293.158 442.027 291.84 442.027C289.964 442.027 288.417 442.163 287.199 442.436C285.996 442.708 285.036 443.059 284.32 443.488C283.604 443.904 283.103 444.376 282.816 444.906C282.544 445.422 282.408 445.938 282.408 446.453C282.408 447.456 282.859 448.279 283.762 448.924C284.664 449.554 286.039 449.869 287.887 449.869C288.632 449.869 289.484 449.819 290.443 449.719C291.417 449.604 292.434 449.482 293.494 449.354C294.568 449.225 295.657 449.11 296.76 449.01C297.877 448.895 298.958 448.838 300.004 448.838C301.98 448.838 303.728 449.06 305.246 449.504C306.779 449.948 308.061 450.585 309.092 451.416C310.123 452.232 310.904 453.228 311.434 454.402C311.964 455.562 312.229 456.866 312.229 458.312C312.229 460.246 311.777 461.972 310.875 463.49C309.987 464.994 308.712 466.269 307.051 467.314C305.404 468.346 303.413 469.133 301.078 469.678C298.743 470.208 296.144 470.473 293.279 470.473C291.389 470.473 289.541 470.351 287.736 470.107C285.932 469.878 284.199 469.549 282.537 469.119C280.89 468.675 279.314 468.152 277.811 467.551C276.321 466.935 274.939 466.262 273.664 465.531L277.295 460.01ZM319.727 436.42H337.43C340.008 436.42 342.242 436.699 344.133 437.258C346.023 437.816 347.592 438.626 348.838 439.686C350.084 440.731 351.008 442.013 351.609 443.531C352.225 445.049 352.533 446.761 352.533 448.666C352.533 450.456 352.232 452.111 351.631 453.629C351.029 455.147 350.105 456.465 348.859 457.582C347.628 458.685 346.066 459.551 344.176 460.182C342.285 460.798 340.051 461.105 337.473 461.105L326.537 461.084V470H319.727V436.42ZM337.602 455.197C338.891 455.197 340.015 455.047 340.975 454.746C341.949 454.431 342.758 453.994 343.402 453.436C344.061 452.863 344.548 452.175 344.863 451.373C345.193 450.557 345.357 449.654 345.357 448.666C345.357 446.675 344.706 445.128 343.402 444.025C342.113 442.908 340.18 442.35 337.602 442.35H326.537V455.197H337.602ZM371.439 436.42H378.658L394.9 470H387.746L385.061 464.35H365.445L362.846 470H355.67L371.439 436.42ZM382.375 458.742L375.113 443.488L368.045 458.742H382.375ZM398.08 453.006C398.08 450.614 398.531 448.387 399.434 446.324C400.336 444.247 401.639 442.45 403.344 440.932C405.062 439.399 407.154 438.196 409.617 437.322C412.095 436.449 414.895 436.012 418.018 436.012C420.753 436.012 423.26 436.291 425.537 436.85C427.829 437.394 429.956 438.232 431.918 439.363L428.781 444.52C428.194 444.133 427.514 443.789 426.74 443.488C425.981 443.188 425.165 442.937 424.291 442.736C423.432 442.521 422.536 442.357 421.605 442.242C420.689 442.128 419.779 442.07 418.877 442.07C416.7 442.07 414.759 442.342 413.055 442.887C411.35 443.417 409.911 444.169 408.736 445.143C407.576 446.102 406.688 447.255 406.072 448.602C405.471 449.934 405.17 451.402 405.17 453.006C405.17 454.667 405.485 456.193 406.115 457.582C406.745 458.971 407.655 460.174 408.844 461.191C410.047 462.194 411.508 462.982 413.227 463.555C414.96 464.113 416.915 464.393 419.092 464.393C420.08 464.393 421.061 464.321 422.035 464.178C423.009 464.035 423.947 463.841 424.85 463.598C425.766 463.34 426.647 463.039 427.492 462.695C428.337 462.337 429.125 461.951 429.855 461.535L432.992 466.691C431.159 467.866 429.039 468.79 426.633 469.463C424.227 470.122 421.67 470.451 418.963 470.451C415.511 470.451 412.482 470.007 409.875 469.119C407.268 468.217 405.091 466.985 403.344 465.424C401.596 463.848 400.279 462.001 399.391 459.881C398.517 457.747 398.08 455.455 398.08 453.006ZM440.512 436.42H469.107V442.393H447.322V449.096H466.615V454.703H447.322V464.049H469.559V470H440.512V436.42Z" fill="white"/>
<defs>
<clipPath id="clip0_1_34">
<rect width="393" height="393" fill="white" transform="translate(93 33)"/>
</clipPath>
</defs>
</svg>
