<svg width="578" height="578" viewBox="0 0 578 578" fill="none" xmlns="http://www.w3.org/2000/svg">
<circle cx="289" cy="289" r="289" fill="#154FA6"/>
<g clip-path="url(#clip0_1_34)">
<path d="M288.74 293.856C318.18 304.78 348.296 313.786 378.899 320.816C364.838 334.402 347.243 343.761 328.121 347.827C308.999 351.893 289.119 350.501 270.749 343.812C252.38 337.123 236.259 325.404 224.226 309.993C212.192 294.582 204.731 276.098 202.692 256.65C230.554 270.872 259.295 283.299 288.74 293.856ZM293.39 281.184C262.045 269.971 231.572 256.453 202.221 240.743C203.071 219.304 210.585 198.664 223.716 181.699C225.827 179.003 228.073 176.374 230.454 173.813C231.532 172.667 232.678 171.521 233.823 170.443C253.168 151.438 279.212 140.809 306.327 140.854C332.099 140.875 356.953 150.427 376.109 167.672C395.265 184.917 407.37 208.638 410.097 234.272C410.504 237.92 410.707 241.588 410.704 245.259V249.775C409.886 271.261 402.37 291.953 389.208 308.954C356.641 302.02 324.618 292.739 293.39 281.184ZM251.006 191.203C259.735 182.403 270.419 175.789 282.186 171.901C293.954 168.012 306.474 166.958 318.726 168.825C319.607 168.979 320.51 168.956 321.383 168.757C322.255 168.559 323.079 168.188 323.806 167.667C324.534 167.146 325.151 166.486 325.62 165.724C326.09 164.963 326.403 164.115 326.542 163.231C326.737 161.503 326.256 159.768 325.202 158.386C324.147 157.004 322.599 156.084 320.882 155.817C316.077 154.942 311.21 154.446 306.327 154.334C294.197 154.377 282.197 156.83 271.023 161.551C259.849 166.272 249.724 173.166 241.235 181.834C239.98 183.097 239.276 184.805 239.276 186.586C239.276 188.366 239.98 190.075 241.235 191.337C242.498 192.593 244.206 193.297 245.986 193.297C247.766 193.297 249.474 192.593 250.736 191.337L251.006 191.203ZM202.288 251.864V240.676C197.706 238.249 193.393 235.823 189.283 233.329C150.807 210.817 131.132 191.203 134.366 182.777C136.792 176.037 158.893 170.443 209.094 179.07C212.004 174.774 215.224 170.696 218.729 166.871C181.467 160.13 130.256 154.873 121.9 177.925C115.162 197.336 144.137 223.623 188.879 248.696C192.989 250.988 197.167 253.28 201.547 255.437L202.894 256.111C202.894 254.763 202.76 253.415 202.49 252.066L202.288 251.864ZM424.248 241.889V245.259C424.264 249.152 424.084 253.044 423.708 256.919C467.305 282.33 481.051 301.068 478.558 307.875C476.874 312.459 463.195 319.064 422.563 314.278C416.566 313.537 410.299 312.661 403.831 311.515L393.925 309.897H393.117L389.613 309.156C388.804 310.234 387.996 311.245 387.12 312.256C384.835 315.012 382.406 317.644 379.842 320.142L379.303 320.682C384.626 321.827 389.68 322.906 394.734 323.849C394.321 324.397 393.871 324.915 393.386 325.4L394.801 323.849C404.1 325.602 412.927 327.017 421.283 327.961C430.224 329.097 439.224 329.705 448.236 329.781C472.898 329.781 487.385 324.052 491.496 312.796C499.582 289.744 457.737 260.829 424.248 241.889ZM440.217 145.706C447.819 145.72 455.255 143.476 461.581 139.26C467.908 135.043 472.841 129.044 475.756 122.021C478.672 114.998 479.438 107.268 477.958 99.8088C476.478 92.35 472.819 85.4982 467.443 80.1211C462.068 74.7441 455.218 71.0836 447.761 69.6034C440.304 68.1231 432.576 68.8896 425.555 71.8058C418.534 74.722 412.537 79.6567 408.321 85.985C404.106 92.3133 401.863 99.7505 401.876 107.355C401.894 117.521 405.939 127.265 413.126 134.454C420.312 141.642 430.054 145.689 440.217 145.706ZM319.804 97.986C321.03 97.986 322.229 97.6223 323.248 96.9409C324.267 96.2596 325.062 95.2911 325.531 94.158C326 93.0249 326.123 91.7781 325.884 90.5753C325.645 89.3724 325.054 88.2675 324.187 87.4003C323.32 86.533 322.216 85.9425 321.013 85.7032C319.811 85.4639 318.564 85.5867 317.432 86.0561C316.299 86.5254 315.331 87.3202 314.649 88.3399C313.968 89.3597 313.605 90.5586 313.605 91.785C313.605 93.4296 314.258 95.0069 315.42 96.1698C316.583 97.3327 318.16 97.986 319.804 97.986ZM232.206 77.7654C233.432 77.7654 234.631 77.4018 235.65 76.7204C236.67 76.039 237.464 75.0706 237.933 73.9375C238.403 72.8044 238.525 71.5576 238.286 70.3547C238.047 69.1519 237.457 68.0469 236.59 67.1797C235.723 66.3125 234.618 65.7219 233.415 65.4827C232.213 65.2434 230.966 65.3662 229.834 65.8355C228.701 66.3049 227.733 67.0997 227.052 68.1194C226.37 69.1391 226.007 70.338 226.007 71.5645C226.007 72.3788 226.167 73.1851 226.479 73.9375C226.79 74.6898 227.247 75.3734 227.823 75.9492C228.398 76.525 229.082 76.9818 229.834 77.2934C230.586 77.605 231.392 77.7654 232.206 77.7654ZM434.894 192.888C434.894 194.114 435.258 195.313 435.939 196.333C436.62 197.353 437.588 198.147 438.721 198.617C439.854 199.086 441.1 199.209 442.303 198.97C443.505 198.73 444.61 198.14 445.477 197.272C446.344 196.405 446.934 195.3 447.173 194.097C447.413 192.895 447.29 191.648 446.821 190.515C446.351 189.382 445.557 188.413 444.537 187.732C443.518 187.05 442.319 186.687 441.093 186.687C439.449 186.687 437.872 187.34 436.71 188.503C435.547 189.666 434.894 191.243 434.894 192.888ZM495 172.128C496.226 172.128 497.424 171.764 498.444 171.083C499.463 170.402 500.258 169.433 500.727 168.3C501.196 167.167 501.319 165.92 501.08 164.717C500.841 163.514 500.25 162.409 499.383 161.542C498.516 160.675 497.412 160.084 496.209 159.845C495.007 159.606 493.76 159.729 492.627 160.198C491.495 160.667 490.526 161.462 489.845 162.482C489.164 163.502 488.8 164.701 488.8 165.927C488.8 166.741 488.961 167.548 489.272 168.3C489.584 169.052 490.04 169.736 490.616 170.312C491.192 170.888 491.875 171.344 492.627 171.656C493.379 171.968 494.186 172.128 495 172.128ZM495 233.868C493.774 233.868 492.575 234.232 491.556 234.913C490.536 235.594 489.742 236.563 489.272 237.696C488.803 238.829 488.68 240.076 488.92 241.279C489.159 242.482 489.749 243.587 490.616 244.454C491.483 245.321 492.588 245.912 493.79 246.151C494.993 246.39 496.239 246.267 497.372 245.798C498.505 245.329 499.473 244.534 500.154 243.514C500.835 242.494 501.199 241.295 501.199 240.069C501.199 238.424 500.546 236.847 499.383 235.684C498.221 234.521 496.644 233.868 495 233.868ZM117.655 233.868C116.429 233.868 115.23 234.232 114.211 234.913C113.191 235.594 112.397 236.563 111.928 237.696C111.458 238.829 111.336 240.076 111.575 241.279C111.814 242.482 112.405 243.587 113.272 244.454C114.138 245.321 115.243 245.912 116.446 246.151C117.648 246.39 118.895 246.267 120.027 245.798C121.16 245.329 122.128 244.534 122.81 243.514C123.491 242.494 123.854 241.295 123.854 240.069C123.854 238.424 123.201 236.847 122.039 235.684C120.876 234.521 119.299 233.868 117.655 233.868ZM151.347 301.27C150.12 301.27 148.922 301.633 147.902 302.315C146.883 302.996 146.088 303.965 145.619 305.098C145.15 306.231 145.027 307.478 145.266 308.681C145.506 309.883 146.096 310.988 146.963 311.856C147.83 312.723 148.935 313.313 150.137 313.553C151.34 313.792 152.586 313.669 153.719 313.2C154.852 312.73 155.82 311.936 156.501 310.916C157.182 309.896 157.546 308.697 157.546 307.471C157.546 305.826 156.893 304.249 155.73 303.086C154.567 301.923 152.991 301.27 151.347 301.27ZM131.132 355.191C129.906 355.191 128.707 355.555 127.688 356.236C126.668 356.918 125.873 357.886 125.404 359.019C124.935 360.152 124.812 361.399 125.052 362.602C125.291 363.805 125.881 364.91 126.748 365.777C127.615 366.644 128.72 367.235 129.922 367.474C131.125 367.713 132.371 367.59 133.504 367.121C134.637 366.652 135.605 365.857 136.286 364.837C136.967 363.818 137.331 362.619 137.331 361.392C137.331 360.578 137.171 359.772 136.859 359.019C136.547 358.267 136.091 357.583 135.515 357.007C134.939 356.432 134.256 355.975 133.504 355.663C132.752 355.352 131.946 355.191 131.132 355.191ZM407.402 355.191C406.176 355.191 404.977 355.555 403.958 356.236C402.938 356.918 402.144 357.886 401.674 359.019C401.205 360.152 401.083 361.399 401.322 362.602C401.561 363.805 402.151 364.91 403.018 365.777C403.885 366.644 404.99 367.235 406.192 367.474C407.395 367.713 408.641 367.59 409.774 367.121C410.907 366.652 411.875 365.857 412.556 364.837C413.237 363.818 413.601 362.619 413.601 361.392C413.601 360.578 413.441 359.772 413.129 359.019C412.818 358.267 412.361 357.583 411.785 357.007C411.21 356.432 410.526 355.975 409.774 355.663C409.022 355.352 408.216 355.191 407.402 355.191ZM447.832 388.892C446.606 388.892 445.407 389.256 444.387 389.937C443.368 390.619 442.573 391.587 442.104 392.72C441.635 393.853 441.512 395.1 441.751 396.303C441.991 397.506 442.581 398.611 443.448 399.478C444.315 400.345 445.42 400.936 446.622 401.175C447.825 401.414 449.071 401.291 450.204 400.822C451.337 400.353 452.305 399.558 452.986 398.538C453.667 397.518 454.031 396.32 454.031 395.093C454.031 393.449 453.378 391.871 452.215 390.708C451.053 389.545 449.476 388.892 447.832 388.892ZM171.561 124.947C172.787 124.947 173.986 124.583 175.006 123.902C176.025 123.22 176.82 122.252 177.289 121.119C177.758 119.986 177.881 118.739 177.642 117.536C177.402 116.333 176.812 115.228 175.945 114.361C175.078 113.494 173.973 112.903 172.771 112.664C171.568 112.425 170.322 112.547 169.189 113.017C168.056 113.486 167.088 114.281 166.407 115.301C165.726 116.32 165.362 117.519 165.362 118.746C165.362 120.39 166.015 121.968 167.178 123.13C168.34 124.293 169.917 124.947 171.561 124.947ZM231.465 112.006C231.465 113.485 231.904 114.932 232.725 116.162C233.547 117.392 234.715 118.351 236.082 118.918C237.449 119.484 238.953 119.632 240.404 119.343C241.854 119.055 243.187 118.342 244.233 117.296C245.279 116.25 245.992 114.916 246.28 113.465C246.569 112.014 246.421 110.51 245.855 109.142C245.288 107.775 244.33 106.607 243.1 105.785C241.87 104.963 240.424 104.524 238.944 104.524C236.961 104.524 235.058 105.312 233.656 106.715C232.253 108.118 231.465 110.021 231.465 112.006ZM178.3 347.17C176.82 347.17 175.374 347.609 174.144 348.431C172.914 349.253 171.956 350.422 171.39 351.789C170.823 353.156 170.675 354.66 170.964 356.112C171.253 357.563 171.965 358.896 173.011 359.942C174.057 360.989 175.39 361.701 176.841 361.99C178.291 362.279 179.795 362.13 181.162 361.564C182.529 360.998 183.697 360.039 184.519 358.809C185.341 357.578 185.779 356.132 185.779 354.652C185.779 352.668 184.991 350.765 183.589 349.362C182.186 347.959 180.283 347.17 178.3 347.17ZM319.804 394.352C318.325 394.352 316.879 394.79 315.649 395.613C314.419 396.435 313.46 397.603 312.894 398.97C312.328 400.337 312.18 401.842 312.468 403.293C312.757 404.744 313.469 406.077 314.515 407.124C315.561 408.17 316.894 408.882 318.345 409.171C319.796 409.46 321.3 409.312 322.666 408.745C324.033 408.179 325.201 407.22 326.023 405.99C326.845 404.76 327.283 403.313 327.283 401.833C327.283 399.849 326.495 397.946 325.093 396.543C323.69 395.14 321.788 394.352 319.804 394.352ZM353.495 79.0461C354.975 79.0461 356.421 78.6073 357.651 77.7852C358.881 76.9631 359.839 75.7946 360.406 74.4276C360.972 73.0605 361.12 71.5562 360.831 70.1049C360.543 68.6536 359.83 67.3205 358.784 66.2742C357.738 65.2279 356.405 64.5153 354.955 64.2266C353.504 63.938 352 64.0861 350.633 64.6524C349.266 65.2186 348.098 66.1776 347.276 67.4079C346.455 68.6383 346.016 70.0848 346.016 71.5645C346.016 73.5487 346.804 75.4517 348.207 76.8548C349.609 78.2578 351.512 79.0461 353.495 79.0461Z" fill="white"/>
</g>
<path d="M110.77 428.42H128.709C130.9 428.42 132.805 428.656 134.424 429.129C136.057 429.587 137.41 430.225 138.484 431.041C139.559 431.857 140.354 432.831 140.869 433.963C141.399 435.08 141.664 436.29 141.664 437.594C141.664 439.728 140.991 441.597 139.645 443.201C141.191 444.118 142.344 445.307 143.104 446.768C143.863 448.229 144.242 449.89 144.242 451.752C144.242 453.313 143.977 454.724 143.447 455.984C142.932 457.245 142.137 458.326 141.062 459.229C140.003 460.117 138.656 460.804 137.023 461.291C135.405 461.764 133.493 462 131.287 462H110.77V428.42ZM131.33 441.311C131.917 441.311 132.49 441.332 133.049 441.375C134.008 440.458 134.488 439.413 134.488 438.238C134.488 437.021 134.008 436.083 133.049 435.424C132.104 434.751 130.714 434.414 128.881 434.414H117.58V441.311H131.33ZM131.459 456.07C133.292 456.07 134.682 455.676 135.627 454.889C136.587 454.101 137.066 452.991 137.066 451.559C137.066 450.126 136.587 449.009 135.627 448.207C134.682 447.405 133.292 447.004 131.459 447.004H117.58V456.07H131.459ZM150.301 428.42H157.154V462H150.301V428.42ZM165.855 428.42H172.666V456.027H192.195V462H165.855V428.42ZM197.953 428.42H204.807V462H197.953V428.42ZM213.529 428.42H220.34L232.543 440.666L244.746 428.42H251.557V462H244.746V437.852L232.543 449.604L220.34 437.852V462H213.529V428.42ZM277.295 452.01C278.512 452.697 279.744 453.32 280.99 453.879C282.251 454.423 283.554 454.889 284.9 455.275C286.247 455.648 287.658 455.934 289.133 456.135C290.622 456.335 292.205 456.436 293.881 456.436C295.9 456.436 297.619 456.307 299.037 456.049C300.455 455.777 301.608 455.411 302.496 454.953C303.398 454.48 304.05 453.922 304.451 453.277C304.867 452.633 305.074 451.931 305.074 451.172C305.074 449.954 304.566 448.995 303.549 448.293C302.532 447.577 300.964 447.219 298.844 447.219C297.913 447.219 296.932 447.283 295.9 447.412C294.869 447.527 293.824 447.656 292.764 447.799C291.718 447.942 290.68 448.078 289.648 448.207C288.632 448.322 287.672 448.379 286.77 448.379C285.266 448.379 283.819 448.186 282.43 447.799C281.055 447.412 279.83 446.832 278.756 446.059C277.696 445.285 276.851 444.318 276.221 443.158C275.59 441.998 275.275 440.645 275.275 439.098C275.275 438.181 275.397 437.271 275.641 436.369C275.898 435.467 276.299 434.607 276.844 433.791C277.402 432.96 278.118 432.194 278.992 431.492C279.866 430.776 280.919 430.16 282.15 429.645C283.396 429.129 284.829 428.728 286.447 428.441C288.08 428.141 289.935 427.99 292.012 427.99C293.516 427.99 295.027 428.076 296.545 428.248C298.063 428.406 299.538 428.635 300.971 428.936C302.417 429.236 303.807 429.602 305.139 430.031C306.471 430.447 307.71 430.912 308.855 431.428L305.869 436.928C304.924 436.512 303.907 436.133 302.818 435.789C301.73 435.431 300.591 435.123 299.402 434.865C298.214 434.607 296.982 434.407 295.707 434.264C294.447 434.106 293.158 434.027 291.84 434.027C289.964 434.027 288.417 434.163 287.199 434.436C285.996 434.708 285.036 435.059 284.32 435.488C283.604 435.904 283.103 436.376 282.816 436.906C282.544 437.422 282.408 437.938 282.408 438.453C282.408 439.456 282.859 440.279 283.762 440.924C284.664 441.554 286.039 441.869 287.887 441.869C288.632 441.869 289.484 441.819 290.443 441.719C291.417 441.604 292.434 441.482 293.494 441.354C294.568 441.225 295.657 441.11 296.76 441.01C297.877 440.895 298.958 440.838 300.004 440.838C301.98 440.838 303.728 441.06 305.246 441.504C306.779 441.948 308.061 442.585 309.092 443.416C310.123 444.232 310.904 445.228 311.434 446.402C311.964 447.562 312.229 448.866 312.229 450.312C312.229 452.246 311.777 453.972 310.875 455.49C309.987 456.994 308.712 458.269 307.051 459.314C305.404 460.346 303.413 461.133 301.078 461.678C298.743 462.208 296.144 462.473 293.279 462.473C291.389 462.473 289.541 462.351 287.736 462.107C285.932 461.878 284.199 461.549 282.537 461.119C280.89 460.675 279.314 460.152 277.811 459.551C276.321 458.935 274.939 458.262 273.664 457.531L277.295 452.01ZM319.727 428.42H337.43C340.008 428.42 342.242 428.699 344.133 429.258C346.023 429.816 347.592 430.626 348.838 431.686C350.084 432.731 351.008 434.013 351.609 435.531C352.225 437.049 352.533 438.761 352.533 440.666C352.533 442.456 352.232 444.111 351.631 445.629C351.029 447.147 350.105 448.465 348.859 449.582C347.628 450.685 346.066 451.551 344.176 452.182C342.285 452.798 340.051 453.105 337.473 453.105L326.537 453.084V462H319.727V428.42ZM337.602 447.197C338.891 447.197 340.015 447.047 340.975 446.746C341.949 446.431 342.758 445.994 343.402 445.436C344.061 444.863 344.548 444.175 344.863 443.373C345.193 442.557 345.357 441.654 345.357 440.666C345.357 438.675 344.706 437.128 343.402 436.025C342.113 434.908 340.18 434.35 337.602 434.35H326.537V447.197H337.602ZM371.439 428.42H378.658L394.9 462H387.746L385.061 456.35H365.445L362.846 462H355.67L371.439 428.42ZM382.375 450.742L375.113 435.488L368.045 450.742H382.375ZM398.08 445.006C398.08 442.614 398.531 440.387 399.434 438.324C400.336 436.247 401.639 434.45 403.344 432.932C405.062 431.399 407.154 430.196 409.617 429.322C412.095 428.449 414.895 428.012 418.018 428.012C420.753 428.012 423.26 428.291 425.537 428.85C427.829 429.394 429.956 430.232 431.918 431.363L428.781 436.52C428.194 436.133 427.514 435.789 426.74 435.488C425.981 435.188 425.165 434.937 424.291 434.736C423.432 434.521 422.536 434.357 421.605 434.242C420.689 434.128 419.779 434.07 418.877 434.07C416.7 434.07 414.759 434.342 413.055 434.887C411.35 435.417 409.911 436.169 408.736 437.143C407.576 438.102 406.688 439.255 406.072 440.602C405.471 441.934 405.17 443.402 405.17 445.006C405.17 446.667 405.485 448.193 406.115 449.582C406.745 450.971 407.655 452.174 408.844 453.191C410.047 454.194 411.508 454.982 413.227 455.555C414.96 456.113 416.915 456.393 419.092 456.393C420.08 456.393 421.061 456.321 422.035 456.178C423.009 456.035 423.947 455.841 424.85 455.598C425.766 455.34 426.647 455.039 427.492 454.695C428.337 454.337 429.125 453.951 429.855 453.535L432.992 458.691C431.159 459.866 429.039 460.79 426.633 461.463C424.227 462.122 421.67 462.451 418.963 462.451C415.511 462.451 412.482 462.007 409.875 461.119C407.268 460.217 405.091 458.985 403.344 457.424C401.596 455.848 400.279 454.001 399.391 451.881C398.517 449.747 398.08 447.455 398.08 445.006ZM440.512 428.42H469.107V434.393H447.322V441.096H466.615V446.703H447.322V456.049H469.559V462H440.512V428.42Z" fill="white"/>
<defs>
<clipPath id="clip0_1_34">
<rect width="393" height="393" fill="white" transform="translate(93 25)"/>
</clipPath>
</defs>
</svg>
