<svg width="578" height="578" viewBox="0 0 578 578" fill="none" xmlns="http://www.w3.org/2000/svg">
<circle cx="289" cy="289" r="289" fill="#154FA6"/>
<g clip-path="url(#clip0_1_34)">
<path d="M288.74 306.856C318.18 317.78 348.296 326.786 378.899 333.816C364.838 347.402 347.243 356.761 328.121 360.827C308.999 364.893 289.119 363.501 270.749 356.812C252.38 350.123 236.259 338.404 224.226 322.993C212.192 307.582 204.731 289.098 202.692 269.65C230.554 283.872 259.295 296.299 288.74 306.856ZM293.39 294.184C262.045 282.971 231.572 269.453 202.221 253.743C203.071 232.304 210.585 211.664 223.716 194.699C225.827 192.003 228.073 189.374 230.454 186.813C231.532 185.667 232.678 184.521 233.823 183.443C253.168 164.438 279.212 153.809 306.327 153.854C332.099 153.875 356.953 163.427 376.109 180.672C395.265 197.917 407.37 221.638 410.097 247.272C410.504 250.92 410.707 254.588 410.704 258.259V262.775C409.886 284.261 402.37 304.953 389.208 321.954C356.641 315.02 324.618 305.739 293.39 294.184ZM251.006 204.203C259.735 195.403 270.419 188.789 282.186 184.901C293.954 181.012 306.474 179.958 318.726 181.825C319.607 181.979 320.51 181.956 321.383 181.757C322.255 181.559 323.079 181.188 323.806 180.667C324.534 180.146 325.151 179.486 325.62 178.724C326.09 177.963 326.403 177.115 326.542 176.231C326.737 174.503 326.256 172.768 325.202 171.386C324.147 170.004 322.599 169.084 320.882 168.817C316.077 167.942 311.21 167.446 306.327 167.334C294.197 167.377 282.197 169.83 271.023 174.551C259.849 179.272 249.724 186.166 241.235 194.834C239.98 196.097 239.276 197.805 239.276 199.586C239.276 201.366 239.98 203.075 241.235 204.337C242.498 205.593 244.206 206.297 245.986 206.297C247.766 206.297 249.474 205.593 250.736 204.337L251.006 204.203ZM202.288 264.864V253.676C197.706 251.249 193.393 248.823 189.283 246.329C150.807 223.817 131.132 204.203 134.366 195.777C136.792 189.037 158.893 183.443 209.094 192.07C212.004 187.774 215.224 183.696 218.729 179.871C181.467 173.13 130.256 167.873 121.9 190.925C115.162 210.336 144.137 236.623 188.879 261.696C192.989 263.988 197.167 266.28 201.547 268.437L202.894 269.111C202.894 267.763 202.76 266.415 202.49 265.066L202.288 264.864ZM424.248 254.889V258.259C424.264 262.152 424.084 266.044 423.708 269.919C467.305 295.33 481.051 314.068 478.558 320.875C476.874 325.459 463.195 332.064 422.563 327.278C416.566 326.537 410.299 325.661 403.831 324.515L393.925 322.897H393.117L389.613 322.156C388.804 323.234 387.996 324.245 387.12 325.256C384.835 328.012 382.406 330.644 379.842 333.142L379.303 333.682C384.626 334.827 389.68 335.906 394.734 336.849C394.321 337.397 393.871 337.915 393.386 338.4L394.801 336.849C404.1 338.602 412.927 340.017 421.283 340.961C430.224 342.097 439.224 342.705 448.236 342.781C472.898 342.781 487.385 337.052 491.496 325.796C499.582 302.744 457.737 273.829 424.248 254.889ZM440.217 158.706C447.819 158.72 455.255 156.476 461.581 152.26C467.908 148.043 472.841 142.044 475.756 135.021C478.672 127.998 479.438 120.268 477.958 112.809C476.478 105.35 472.819 98.4982 467.443 93.1211C462.068 87.7441 455.218 84.0836 447.761 82.6034C440.304 81.1231 432.576 81.8896 425.555 84.8058C418.534 87.722 412.537 92.6567 408.321 98.985C404.106 105.313 401.863 112.751 401.876 120.355C401.894 130.521 405.939 140.265 413.126 147.454C420.312 154.642 430.054 158.689 440.217 158.706ZM319.804 110.986C321.03 110.986 322.229 110.622 323.248 109.941C324.267 109.26 325.062 108.291 325.531 107.158C326 106.025 326.123 104.778 325.884 103.575C325.645 102.372 325.054 101.267 324.187 100.4C323.32 99.533 322.216 98.9425 321.013 98.7032C319.811 98.4639 318.564 98.5867 317.432 99.0561C316.299 99.5254 315.331 100.32 314.649 101.34C313.968 102.36 313.605 103.559 313.605 104.785C313.605 106.43 314.258 108.007 315.42 109.17C316.583 110.333 318.16 110.986 319.804 110.986ZM232.206 90.7654C233.432 90.7654 234.631 90.4018 235.65 89.7204C236.67 89.039 237.464 88.0706 237.933 86.9375C238.403 85.8044 238.525 84.5576 238.286 83.3547C238.047 82.1519 237.457 81.0469 236.59 80.1797C235.723 79.3125 234.618 78.7219 233.415 78.4827C232.213 78.2434 230.966 78.3662 229.834 78.8355C228.701 79.3049 227.733 80.0997 227.052 81.1194C226.37 82.1391 226.007 83.338 226.007 84.5645C226.007 85.3788 226.167 86.1851 226.479 86.9375C226.79 87.6898 227.247 88.3734 227.823 88.9492C228.398 89.525 229.082 89.9818 229.834 90.2934C230.586 90.605 231.392 90.7654 232.206 90.7654ZM434.894 205.888C434.894 207.114 435.258 208.313 435.939 209.333C436.62 210.353 437.588 211.147 438.721 211.617C439.854 212.086 441.1 212.209 442.303 211.97C443.505 211.73 444.61 211.14 445.477 210.272C446.344 209.405 446.934 208.3 447.173 207.097C447.413 205.895 447.29 204.648 446.821 203.515C446.351 202.382 445.557 201.413 444.537 200.732C443.518 200.05 442.319 199.687 441.093 199.687C439.449 199.687 437.872 200.34 436.71 201.503C435.547 202.666 434.894 204.243 434.894 205.888ZM495 185.128C496.226 185.128 497.424 184.764 498.444 184.083C499.463 183.402 500.258 182.433 500.727 181.3C501.196 180.167 501.319 178.92 501.08 177.717C500.841 176.514 500.25 175.409 499.383 174.542C498.516 173.675 497.412 173.084 496.209 172.845C495.007 172.606 493.76 172.729 492.627 173.198C491.495 173.667 490.526 174.462 489.845 175.482C489.164 176.502 488.8 177.701 488.8 178.927C488.8 179.741 488.961 180.548 489.272 181.3C489.584 182.052 490.04 182.736 490.616 183.312C491.192 183.888 491.875 184.344 492.627 184.656C493.379 184.968 494.186 185.128 495 185.128ZM495 246.868C493.774 246.868 492.575 247.232 491.556 247.913C490.536 248.594 489.742 249.563 489.272 250.696C488.803 251.829 488.68 253.076 488.92 254.279C489.159 255.482 489.749 256.587 490.616 257.454C491.483 258.321 492.588 258.912 493.79 259.151C494.993 259.39 496.239 259.267 497.372 258.798C498.505 258.329 499.473 257.534 500.154 256.514C500.835 255.494 501.199 254.295 501.199 253.069C501.199 251.424 500.546 249.847 499.383 248.684C498.221 247.521 496.644 246.868 495 246.868ZM117.655 246.868C116.429 246.868 115.23 247.232 114.211 247.913C113.191 248.594 112.397 249.563 111.928 250.696C111.458 251.829 111.336 253.076 111.575 254.279C111.814 255.482 112.405 256.587 113.272 257.454C114.138 258.321 115.243 258.912 116.446 259.151C117.648 259.39 118.895 259.267 120.027 258.798C121.16 258.329 122.128 257.534 122.81 256.514C123.491 255.494 123.854 254.295 123.854 253.069C123.854 251.424 123.201 249.847 122.039 248.684C120.876 247.521 119.299 246.868 117.655 246.868ZM151.347 314.27C150.12 314.27 148.922 314.633 147.902 315.315C146.883 315.996 146.088 316.965 145.619 318.098C145.15 319.231 145.027 320.478 145.266 321.681C145.506 322.883 146.096 323.988 146.963 324.856C147.83 325.723 148.935 326.313 150.137 326.553C151.34 326.792 152.586 326.669 153.719 326.2C154.852 325.73 155.82 324.936 156.501 323.916C157.182 322.896 157.546 321.697 157.546 320.471C157.546 318.826 156.893 317.249 155.73 316.086C154.567 314.923 152.991 314.27 151.347 314.27ZM131.132 368.191C129.906 368.191 128.707 368.555 127.688 369.236C126.668 369.918 125.873 370.886 125.404 372.019C124.935 373.152 124.812 374.399 125.052 375.602C125.291 376.805 125.881 377.91 126.748 378.777C127.615 379.644 128.72 380.235 129.922 380.474C131.125 380.713 132.371 380.59 133.504 380.121C134.637 379.652 135.605 378.857 136.286 377.837C136.967 376.818 137.331 375.619 137.331 374.392C137.331 373.578 137.171 372.772 136.859 372.019C136.547 371.267 136.091 370.583 135.515 370.007C134.939 369.432 134.256 368.975 133.504 368.663C132.752 368.352 131.946 368.191 131.132 368.191ZM407.402 368.191C406.176 368.191 404.977 368.555 403.958 369.236C402.938 369.918 402.144 370.886 401.674 372.019C401.205 373.152 401.083 374.399 401.322 375.602C401.561 376.805 402.151 377.91 403.018 378.777C403.885 379.644 404.99 380.235 406.192 380.474C407.395 380.713 408.641 380.59 409.774 380.121C410.907 379.652 411.875 378.857 412.556 377.837C413.237 376.818 413.601 375.619 413.601 374.392C413.601 373.578 413.441 372.772 413.129 372.019C412.818 371.267 412.361 370.583 411.785 370.007C411.21 369.432 410.526 368.975 409.774 368.663C409.022 368.352 408.216 368.191 407.402 368.191ZM447.832 401.892C446.606 401.892 445.407 402.256 444.387 402.937C443.368 403.619 442.573 404.587 442.104 405.72C441.635 406.853 441.512 408.1 441.751 409.303C441.991 410.506 442.581 411.611 443.448 412.478C444.315 413.345 445.42 413.936 446.622 414.175C447.825 414.414 449.071 414.291 450.204 413.822C451.337 413.353 452.305 412.558 452.986 411.538C453.667 410.518 454.031 409.32 454.031 408.093C454.031 406.449 453.378 404.871 452.215 403.708C451.053 402.545 449.476 401.892 447.832 401.892ZM171.561 137.947C172.787 137.947 173.986 137.583 175.006 136.902C176.025 136.22 176.82 135.252 177.289 134.119C177.758 132.986 177.881 131.739 177.642 130.536C177.402 129.333 176.812 128.228 175.945 127.361C175.078 126.494 173.973 125.903 172.771 125.664C171.568 125.425 170.322 125.547 169.189 126.017C168.056 126.486 167.088 127.281 166.407 128.301C165.726 129.32 165.362 130.519 165.362 131.746C165.362 133.39 166.015 134.968 167.178 136.13C168.34 137.293 169.917 137.947 171.561 137.947ZM231.465 125.006C231.465 126.485 231.904 127.932 232.725 129.162C233.547 130.392 234.715 131.351 236.082 131.918C237.449 132.484 238.953 132.632 240.404 132.343C241.854 132.055 243.187 131.342 244.233 130.296C245.279 129.25 245.992 127.916 246.28 126.465C246.569 125.014 246.421 123.51 245.855 122.142C245.288 120.775 244.33 119.607 243.1 118.785C241.87 117.963 240.424 117.524 238.944 117.524C236.961 117.524 235.058 118.312 233.656 119.715C232.253 121.118 231.465 123.021 231.465 125.006ZM178.3 360.17C176.82 360.17 175.374 360.609 174.144 361.431C172.914 362.253 171.956 363.422 171.39 364.789C170.823 366.156 170.675 367.66 170.964 369.112C171.253 370.563 171.965 371.896 173.011 372.942C174.057 373.989 175.39 374.701 176.841 374.99C178.291 375.279 179.795 375.13 181.162 374.564C182.529 373.998 183.697 373.039 184.519 371.809C185.341 370.578 185.779 369.132 185.779 367.652C185.779 365.668 184.991 363.765 183.589 362.362C182.186 360.959 180.283 360.17 178.3 360.17ZM319.804 407.352C318.325 407.352 316.879 407.79 315.649 408.613C314.419 409.435 313.46 410.603 312.894 411.97C312.328 413.337 312.18 414.842 312.468 416.293C312.757 417.744 313.469 419.077 314.515 420.124C315.561 421.17 316.894 421.882 318.345 422.171C319.796 422.46 321.3 422.312 322.666 421.745C324.033 421.179 325.201 420.22 326.023 418.99C326.845 417.76 327.283 416.313 327.283 414.833C327.283 412.849 326.495 410.946 325.093 409.543C323.69 408.14 321.788 407.352 319.804 407.352ZM353.495 92.0461C354.975 92.0461 356.421 91.6073 357.651 90.7852C358.881 89.9631 359.839 88.7946 360.406 87.4276C360.972 86.0605 361.12 84.5562 360.831 83.1049C360.543 81.6536 359.83 80.3205 358.784 79.2742C357.738 78.2279 356.405 77.5153 354.955 77.2266C353.504 76.938 352 77.0861 350.633 77.6524C349.266 78.2186 348.098 79.1776 347.276 80.4079C346.455 81.6383 346.016 83.0848 346.016 84.5645C346.016 86.5487 346.804 88.4517 348.207 89.8548C349.609 91.2578 351.512 92.0461 353.495 92.0461Z" fill="#222222"/>
</g>
<path d="M175.035 453.631H186.451C187.846 453.631 189.058 453.781 190.088 454.082C191.127 454.374 191.988 454.779 192.672 455.299C193.355 455.818 193.861 456.438 194.189 457.158C194.527 457.869 194.695 458.639 194.695 459.469C194.695 460.827 194.267 462.016 193.41 463.037C194.395 463.62 195.128 464.377 195.611 465.307C196.094 466.236 196.336 467.294 196.336 468.479C196.336 469.472 196.167 470.37 195.83 471.172C195.502 471.974 194.996 472.662 194.312 473.236C193.638 473.801 192.781 474.239 191.742 474.549C190.712 474.85 189.495 475 188.092 475H175.035V453.631ZM188.119 461.834C188.493 461.834 188.857 461.848 189.213 461.875C189.824 461.292 190.129 460.626 190.129 459.879C190.129 459.104 189.824 458.507 189.213 458.088C188.611 457.66 187.727 457.445 186.561 457.445H179.369V461.834H188.119ZM188.201 471.227C189.368 471.227 190.252 470.976 190.854 470.475C191.464 469.973 191.77 469.267 191.77 468.355C191.77 467.444 191.464 466.733 190.854 466.223C190.252 465.712 189.368 465.457 188.201 465.457H179.369V471.227H188.201ZM200.191 453.631H204.553V475H200.191V453.631ZM210.09 453.631H214.424V471.199H226.852V475H210.09V453.631ZM230.516 453.631H234.877V475H230.516V453.631ZM240.428 453.631H244.762L252.527 461.424L260.293 453.631H264.627V475H260.293V459.633L252.527 467.111L244.762 459.633V475H240.428V453.631ZM281.006 468.643C281.781 469.08 282.564 469.477 283.357 469.832C284.16 470.178 284.989 470.475 285.846 470.721C286.702 470.958 287.6 471.14 288.539 471.268C289.487 471.395 290.494 471.459 291.561 471.459C292.846 471.459 293.939 471.377 294.842 471.213C295.744 471.04 296.478 470.807 297.043 470.516C297.617 470.215 298.032 469.859 298.287 469.449C298.551 469.039 298.684 468.592 298.684 468.109C298.684 467.335 298.36 466.724 297.713 466.277C297.066 465.822 296.068 465.594 294.719 465.594C294.126 465.594 293.502 465.635 292.846 465.717C292.189 465.79 291.524 465.872 290.85 465.963C290.184 466.054 289.523 466.141 288.867 466.223C288.22 466.296 287.609 466.332 287.035 466.332C286.078 466.332 285.158 466.209 284.273 465.963C283.398 465.717 282.619 465.348 281.936 464.855C281.261 464.363 280.723 463.748 280.322 463.01C279.921 462.271 279.721 461.41 279.721 460.426C279.721 459.842 279.798 459.264 279.953 458.689C280.117 458.115 280.372 457.568 280.719 457.049C281.074 456.52 281.53 456.033 282.086 455.586C282.642 455.13 283.312 454.738 284.096 454.41C284.889 454.082 285.8 453.827 286.83 453.645C287.869 453.453 289.049 453.357 290.371 453.357C291.328 453.357 292.29 453.412 293.256 453.521C294.222 453.622 295.161 453.768 296.072 453.959C296.993 454.15 297.877 454.383 298.725 454.656C299.572 454.921 300.361 455.217 301.09 455.545L299.189 459.045C298.588 458.781 297.941 458.539 297.248 458.32C296.555 458.092 295.831 457.896 295.074 457.732C294.318 457.568 293.534 457.441 292.723 457.35C291.921 457.249 291.1 457.199 290.262 457.199C289.068 457.199 288.083 457.286 287.309 457.459C286.543 457.632 285.932 457.855 285.477 458.129C285.021 458.393 284.702 458.694 284.52 459.031C284.346 459.359 284.26 459.688 284.26 460.016C284.26 460.654 284.547 461.178 285.121 461.588C285.695 461.989 286.57 462.189 287.746 462.189C288.22 462.189 288.762 462.158 289.373 462.094C289.993 462.021 290.64 461.943 291.314 461.861C291.998 461.779 292.691 461.706 293.393 461.643C294.104 461.57 294.792 461.533 295.457 461.533C296.715 461.533 297.827 461.674 298.793 461.957C299.768 462.24 300.584 462.645 301.24 463.174C301.896 463.693 302.393 464.327 302.73 465.074C303.068 465.812 303.236 466.642 303.236 467.562C303.236 468.793 302.949 469.891 302.375 470.857C301.81 471.814 300.999 472.626 299.941 473.291C298.893 473.947 297.626 474.449 296.141 474.795C294.655 475.132 293.001 475.301 291.178 475.301C289.975 475.301 288.799 475.223 287.65 475.068C286.502 474.923 285.399 474.713 284.342 474.439C283.294 474.157 282.291 473.824 281.334 473.441C280.386 473.049 279.507 472.621 278.695 472.156L281.006 468.643ZM308.008 453.631H319.273C320.914 453.631 322.336 453.809 323.539 454.164C324.742 454.52 325.74 455.035 326.533 455.709C327.326 456.374 327.914 457.19 328.297 458.156C328.689 459.122 328.885 460.212 328.885 461.424C328.885 462.563 328.693 463.616 328.311 464.582C327.928 465.548 327.34 466.387 326.547 467.098C325.763 467.799 324.77 468.351 323.566 468.752C322.363 469.144 320.941 469.34 319.301 469.34L312.342 469.326V475H308.008V453.631ZM319.383 465.58C320.203 465.58 320.919 465.484 321.529 465.293C322.149 465.092 322.664 464.814 323.074 464.459C323.493 464.094 323.803 463.657 324.004 463.146C324.214 462.627 324.318 462.053 324.318 461.424C324.318 460.157 323.904 459.173 323.074 458.471C322.254 457.76 321.023 457.404 319.383 457.404H312.342V465.58H319.383ZM340.916 453.631H345.51L355.846 475H351.293L349.584 471.404H337.102L335.447 475H330.881L340.916 453.631ZM347.875 467.836L343.254 458.129L338.756 467.836H347.875ZM357.869 464.186C357.869 462.663 358.156 461.246 358.73 459.934C359.305 458.612 360.134 457.468 361.219 456.502C362.312 455.527 363.643 454.761 365.211 454.205C366.788 453.649 368.57 453.371 370.557 453.371C372.298 453.371 373.893 453.549 375.342 453.904C376.8 454.251 378.154 454.784 379.402 455.504L377.406 458.785C377.033 458.539 376.6 458.32 376.107 458.129C375.624 457.938 375.105 457.778 374.549 457.65C374.002 457.514 373.432 457.409 372.84 457.336C372.257 457.263 371.678 457.227 371.104 457.227C369.718 457.227 368.483 457.4 367.398 457.746C366.314 458.083 365.398 458.562 364.65 459.182C363.912 459.792 363.347 460.526 362.955 461.383C362.572 462.23 362.381 463.165 362.381 464.186C362.381 465.243 362.581 466.214 362.982 467.098C363.383 467.982 363.962 468.747 364.719 469.395C365.484 470.033 366.414 470.534 367.508 470.898C368.611 471.254 369.855 471.432 371.24 471.432C371.869 471.432 372.493 471.386 373.113 471.295C373.733 471.204 374.33 471.081 374.904 470.926C375.488 470.762 376.048 470.57 376.586 470.352C377.124 470.124 377.625 469.878 378.09 469.613L380.086 472.895C378.919 473.642 377.57 474.23 376.039 474.658C374.508 475.077 372.881 475.287 371.158 475.287C368.962 475.287 367.034 475.005 365.375 474.439C363.716 473.865 362.331 473.081 361.219 472.088C360.107 471.085 359.268 469.91 358.703 468.561C358.147 467.202 357.869 465.744 357.869 464.186ZM384.871 453.631H403.068V457.432H389.205V461.697H401.482V465.266H389.205V471.213H403.355V475H384.871V453.631Z" fill="white"/>
<defs>
<clipPath id="clip0_1_34">
<rect width="393" height="393" fill="white" transform="translate(93 38)"/>
</clipPath>
</defs>
</svg>
